# xmcd
#
# Track frame offsets: 
#        150
#        9694
#        18563
#        27936
#        36102
#        45695
#        54453
#        64032
#        77242
#        91407
#        101315
#        111010
#        120127
#        132216
#        144895
#        154451
#        165417
#        176685
#        185434
#        199430
#
# Disc length: 2861 seconds
#
# Revision: 0
# Processed by: cddbd v1.5.2PL0 Copyright (c) Steve Scherf et al.
# Submitted via: ExactAudioCopy v1.3
#
DISCID=040b2b14
DTITLE=Don Reno and Red Smiley - CD1_Reno and Smiley
DYEAR=2010
DGENRE=Bluegrass
TTITLE0=Dear Old Dixie
TTITLE1=Nine Pound Hammer
TTITLE2=Chinese Brakedown
TTITLE3=My Old Kentucky Home
TTITLE4=Yes Sir, That's My Baby
TTITLE5=Bill Balley
TTITLE6=It Won't Seem Like Christmas
TTITLE7=Blue Christmas
TTITLE8=White Christmas
TTITLE9=Christmas Doll
TTITLE10=It Came Upon A Midnight Clear
TTITLE11=Jingle Bells
TTITLE12=Silent Night
TTITLE13=From The Manger To The Cross
TTITLE14=Frosty The Snowman
TTITLE15=Christmas Time's A-Coming
TTITLE16=Joy To TheWorld
TTITLE17=Rudolph, The Red Nosed Reindeer
TTITLE18=Christmas Reunion
TTITLE19=The True Meaning Of Christmas
EXTD=
EXTT0=
EXTT1=
EXTT2=
EXTT3=
EXTT4=
EXTT5=
EXTT6=
EXTT7=
EXTT8=
EXTT9=
EXTT10=
EXTT11=
EXTT12=
EXTT13=
EXTT14=
EXTT15=
EXTT16=
EXTT17=
EXTT18=
EXTT19=
PLAYORDER=
